<svg width="32" height="32" viewBox="0 0 32 32" fill="none" xmlns="http://www.w3.org/2000/svg">
<path d="M26.1459 18.8958C26.157 18.6907 26.0603 18.4915 25.8786 18.3713L8.93974 7.18628C8.72826 7.04537 8.44821 7.0529 8.24218 7.20355C8.0378 7.35699 7.95627 7.6192 8.03665 7.86173C8.73362 9.93363 9.80058 13.1575 10.1343 14.2654L5.04511 17.1444C4.82663 17.268 4.70761 17.5137 4.75596 17.7607C4.76852 17.8292 4.79287 17.8942 4.8277 17.9533C4.91556 18.1024 5.06705 18.2124 5.24699 18.2409L11.063 19.2447C11.2293 20.31 11.7403 23.4266 12.1764 26.0918C12.1893 26.1668 12.2152 26.2346 12.2516 26.2963C12.3123 26.3993 12.4026 26.4817 12.5113 26.5369C12.6895 26.6214 12.8966 26.6138 13.0699 26.5192L25.8523 19.4524C26.0573 19.3404 26.1646 19.1219 26.1459 18.8958Z" fill="#BAFCE5"/>
<path d="M11.9978 11.6453C13.1444 12.0436 18.1169 13.4794 22.7058 14.7826L10.3862 6.64081C11.4221 9.73356 11.8375 11.0498 11.9978 11.6453ZM12.0858 12.0416C12.083 11.9779 12.0733 11.9146 12.0525 11.8615C12.0694 11.9376 12.0801 11.9968 12.0858 12.0416ZM26.8084 16.4192C26.8273 16.6452 26.7201 16.8637 26.5158 16.9758L13.7399 24.036C13.5668 24.1304 13.3595 24.138 13.1815 24.0533C13.0727 23.9982 12.9824 23.9153 12.9217 23.8124C12.8854 23.7507 12.8594 23.6829 12.8464 23.6079C12.4089 20.9421 11.8959 17.8246 11.7291 16.7593L5.91309 15.752C5.73312 15.7233 5.58175 15.6135 5.4937 15.4641C5.45884 15.405 5.43438 15.3398 5.42186 15.2715C5.37336 15.0244 5.49202 14.7789 5.71058 14.6553L10.7971 11.7788C10.463 10.6706 9.39397 7.44562 8.69599 5.37307C8.61541 5.1305 8.69663 4.86837 8.90109 4.71492C9.10687 4.56417 9.38687 4.5568 9.59851 4.69806L26.5408 15.8944C26.7224 16.0146 26.819 16.214 26.8084 16.4192ZM13.8968 22.585L23.987 17.0093C19.7926 16.9348 14.6708 16.8628 12.9673 16.8963C13.147 18.0128 13.555 20.5167 13.8968 22.585Z" fill="url(#paint0_linear_12473_18146)"/>
<path d="M23.9816 16.99L13.874 22.5771C13.5315 20.5048 13.123 17.9956 12.9429 16.8768C14.6494 16.8432 19.7799 16.9151 23.9816 16.99Z" fill="#5E5899" fill-opacity="0.74"/>
<path d="M10.4035 6.63963L22.7083 14.7732C18.1249 13.4713 13.1581 12.0368 12.0131 11.639C11.8529 11.0442 11.4381 9.72925 10.4035 6.63963Z" fill="#5E5899" fill-opacity="0.74"/>
<defs>
<linearGradient id="paint0_linear_12473_18146" x1="22.1533" y1="8.32934" x2="6.66818" y2="17.4567" gradientUnits="userSpaceOnUse">
<stop stop-color="#4B4DB8" stop-opacity="0.43"/>
<stop offset="1" stop-color="#3A3C7C"/>
</linearGradient>
</defs>
</svg>
