<svg width="32" height="32" viewBox="0 0 32 32" fill="none" xmlns="http://www.w3.org/2000/svg">
<path d="M24.333 0V0.454102H26C26.7528 0.454102 27.4698 0.604111 28.123 0.875L28.2959 0.456055C29.7625 1.06409 30.9346 2.23669 31.543 3.70312L31.125 3.87695C31.3959 4.5302 31.5459 5.24722 31.5459 6V7.66699H32V11H31.5459V14.333H32V17.667H31.5459V21H32V24.333H31.5459V26C31.5459 26.7528 31.3959 27.4698 31.125 28.123L31.543 28.2959C30.9348 29.7626 29.7626 30.9348 28.2959 31.543L28.123 31.125C27.4698 31.3959 26.7528 31.5459 26 31.5459H24.333V32H21V31.5459H17.667V32H14.333V31.5459H11V32H7.66699V31.5459H6C5.24722 31.5459 4.5302 31.3959 3.87695 31.125L3.70312 31.543C2.23669 30.9346 1.06409 29.7625 0.456055 28.2959L0.875 28.123C0.604111 27.4698 0.454102 26.7528 0.454102 26V24.333H0V21H0.454102V17.667H0V14.333H0.454102V11H0V7.66699H0.454102V6C0.454102 5.24722 0.604111 4.5302 0.875 3.87695L0.456055 3.70312C1.06424 2.2368 2.2368 1.06424 3.70312 0.456055L3.87695 0.875C4.5302 0.604111 5.24722 0.454102 6 0.454102H7.66699V0H11V0.454102H14.333V0H17.667V0.454102H21V0H24.333Z" stroke="#3730A3" stroke-width="0.90873" stroke-dasharray="4 4"/>
<path d="M10 7C9.20435 7 8.44129 7.31607 7.87868 7.87868C7.31607 8.44129 7 9.20435 7 10V22C7 22.7956 7.31607 23.5587 7.87868 24.1213C8.44129 24.6839 9.20435 25 10 25H22C22.7956 25 23.5587 24.6839 24.1213 24.1213C24.6839 23.5587 25 22.7956 25 22V10C25 9.20435 24.6839 8.44129 24.1213 7.87868C23.5587 7.31607 22.7956 7 22 7H10ZM17.334 20.055C18.054 20.635 18.7727 20.921 19.49 20.913C19.93 20.913 20.2673 20.8323 20.502 20.671C20.6113 20.6001 20.7002 20.5019 20.76 20.3862C20.8197 20.2705 20.8484 20.1412 20.843 20.011C20.8445 19.869 20.8149 19.7285 20.7561 19.5992C20.6974 19.47 20.611 19.3552 20.503 19.263C20.2683 19.0583 19.8243 18.853 19.171 18.647C18.3863 18.4203 17.7813 18.127 17.356 17.767C16.9387 17.407 16.726 16.9047 16.718 16.26C16.718 15.6513 16.982 15.1417 17.51 14.731C18.0233 14.3203 18.68 14.115 19.48 14.115C20.5947 14.115 21.489 14.3863 22.163 14.929L21.393 16.128C21.1157 15.9124 20.7977 15.7553 20.458 15.666C20.1528 15.5637 19.8338 15.5081 19.512 15.501C19.132 15.501 18.8277 15.5707 18.599 15.71C18.3723 15.85 18.259 16.0333 18.259 16.26C18.259 16.5093 18.398 16.722 18.676 16.898C18.956 17.0673 19.4327 17.2543 20.106 17.459C20.92 17.701 21.4993 18.0237 21.844 18.427C22.1887 18.8303 22.361 19.3437 22.361 19.967C22.361 20.605 22.1153 21.155 21.624 21.617C21.14 22.0717 20.436 22.31 19.512 22.332C18.302 22.332 17.29 21.969 16.476 21.243L17.334 20.055ZM11.804 20.693C12.0387 20.8397 12.321 20.913 12.651 20.913C12.9957 20.913 13.2817 20.814 13.509 20.616C13.7357 20.4107 13.8493 20.055 13.85 19.549V14.247H15.335V19.835C15.313 20.7003 15.0637 21.3237 14.587 21.705C14.3262 21.9255 14.0229 22.0902 13.696 22.189C13.3928 22.2813 13.0779 22.3295 12.761 22.332C12.211 22.332 11.7233 22.2367 11.298 22.046C10.8433 21.8413 10.462 21.4783 10.154 20.957L11.188 20.11C11.378 20.3667 11.5833 20.561 11.804 20.693Z" fill="#3730A3"/>
</svg>
