<svg width="319" height="266" viewBox="0 0 319 266" fill="none" xmlns="http://www.w3.org/2000/svg">
<path class='js-lines' d="M159 265.5L161.887 260.5L156.113 260.5L159 265.5ZM159.5 168.5C159.5 168.224 159.276 168 159 168C158.724 168 158.5 168.224 158.5 168.5L159 168.5L159.5 168.5ZM158.5 204.736C158.5 205.012 158.724 205.236 159 205.236C159.276 205.236 159.5 205.012 159.5 204.736L159 204.736L158.5 204.736ZM159.5 227.034C159.5 226.758 159.276 226.534 159 226.534C158.724 226.534 158.5 226.758 158.5 227.034L159 227.034L159.5 227.034ZM159.5 263.577C159.5 263.301 159.276 263.077 159 263.077C158.724 263.077 158.5 263.301 158.5 263.577L159 263.577L159.5 263.577ZM158.5 259.73C158.5 260.006 158.724 260.23 159 260.23C159.276 260.23 159.5 260.006 159.5 259.73L159 259.73L158.5 259.73ZM159.5 255.884C159.5 255.607 159.276 255.384 159 255.384C158.724 255.384 158.5 255.607 158.5 255.884L159 255.884L159.5 255.884ZM158.5 252.037C158.5 252.313 158.724 252.537 159 252.537C159.276 252.537 159.5 252.313 159.5 252.037L159 252.037L158.5 252.037ZM159.5 248.191C159.5 247.914 159.276 247.691 159 247.691C158.724 247.691 158.5 247.914 158.5 248.191L159 248.191L159.5 248.191ZM158.5 244.344C158.5 244.62 158.724 244.844 159 244.844C159.276 244.844 159.5 244.62 159.5 244.344L159 244.344L158.5 244.344ZM159.5 240.497C159.5 240.221 159.276 239.997 159 239.997C158.724 239.997 158.5 240.221 158.5 240.497L159 240.497L159.5 240.497ZM158.5 236.651C158.5 236.927 158.724 237.151 159 237.151C159.276 237.151 159.5 236.927 159.5 236.651L159 236.651L158.5 236.651ZM159.5 232.804C159.5 232.528 159.276 232.304 159 232.304C158.724 232.304 158.5 232.528 158.5 232.804L159 232.804L159.5 232.804ZM158.5 228.958C158.5 229.234 158.724 229.458 159 229.458C159.276 229.458 159.5 229.234 159.5 228.958L159 228.958L158.5 228.958ZM159.5 202.924C159.5 202.648 159.276 202.424 159 202.424C158.724 202.424 158.5 202.648 158.5 202.924L159 202.924L159.5 202.924ZM158.5 199.3C158.5 199.576 158.724 199.8 159 199.8C159.276 199.8 159.5 199.576 159.5 199.3L159 199.3L158.5 199.3ZM159.5 195.677C159.5 195.401 159.276 195.177 159 195.177C158.724 195.177 158.5 195.401 158.5 195.677L159 195.677L159.5 195.677ZM158.5 192.053C158.5 192.329 158.724 192.553 159 192.553C159.276 192.553 159.5 192.329 159.5 192.053L159 192.053L158.5 192.053ZM159.5 188.43C159.5 188.153 159.276 187.93 159 187.93C158.724 187.93 158.5 188.153 158.5 188.43L159 188.43L159.5 188.43ZM158.5 184.806C158.5 185.082 158.724 185.306 159 185.306C159.276 185.306 159.5 185.082 159.5 184.806L159 184.806L158.5 184.806ZM159.5 181.182C159.5 180.906 159.276 180.682 159 180.682C158.724 180.682 158.5 180.906 158.5 181.182L159 181.182L159.5 181.182ZM158.5 177.559C158.5 177.835 158.724 178.059 159 178.059C159.276 178.059 159.5 177.835 159.5 177.559L159 177.559L158.5 177.559ZM159.5 173.935C159.5 173.659 159.276 173.435 159 173.435C158.724 173.435 158.5 173.659 158.5 173.935L159 173.935L159.5 173.935ZM158.5 170.312C158.5 170.588 158.724 170.812 159 170.812C159.276 170.812 159.5 170.588 159.5 170.312L159 170.312L158.5 170.312ZM159 259.73L159.5 259.73L159.5 255.884L159 255.884L158.5 255.884L158.5 259.73L159 259.73ZM159 252.037L159.5 252.037L159.5 248.191L159 248.191L158.5 248.191L158.5 252.037L159 252.037ZM159 244.344L159.5 244.344L159.5 240.497L159 240.497L158.5 240.497L158.5 244.344L159 244.344ZM159 236.651L159.5 236.651L159.5 232.804L159 232.804L158.5 232.804L158.5 236.651L159 236.651ZM159 228.958L159.5 228.958L159.5 227.034L159 227.034L158.5 227.034L158.5 228.958L159 228.958ZM159 204.736L159.5 204.736L159.5 202.924L159 202.924L158.5 202.924L158.5 204.736L159 204.736ZM159 199.3L159.5 199.3L159.5 195.677L159 195.677L158.5 195.677L158.5 199.3L159 199.3ZM159 192.053L159.5 192.053L159.5 188.43L159 188.43L158.5 188.43L158.5 192.053L159 192.053ZM159 184.806L159.5 184.806L159.5 181.182L159 181.182L158.5 181.182L158.5 184.806L159 184.806ZM159 177.559L159.5 177.559L159.5 173.935L159 173.935L158.5 173.935L158.5 177.559L159 177.559ZM159 170.312L159.5 170.312L159.5 168.5L159 168.5L158.5 168.5L158.5 170.312L159 170.312Z" fill="#3730A3"/>
<path class='js-lines' d="M95 194.454H223C226.063 194.454 228.546 196.937 228.546 200V219C228.546 222.063 226.063 224.546 223 224.546H95C91.9372 224.546 89.4541 222.063 89.4541 219V200C89.4541 196.937 91.9372 194.454 95 194.454Z" fill="#EEF2FF"/>
<path class='js-lines' d="M95 194.454H223C226.063 194.454 228.546 196.937 228.546 200V219C228.546 222.063 226.063 224.546 223 224.546H95C91.9372 224.546 89.4541 222.063 89.4541 219V200C89.4541 196.937 91.9372 194.454 95 194.454Z" stroke="#818CF8" stroke-width="0.90873"/>
<path class='js-lines' d="M102.719 207.565C102.673 207.162 102.486 206.849 102.156 206.628C101.827 206.403 101.412 206.291 100.912 206.291C100.554 206.291 100.244 206.348 99.983 206.462C99.7216 206.572 99.5185 206.726 99.3736 206.922C99.2315 207.115 99.1605 207.335 99.1605 207.582C99.1605 207.79 99.2088 207.969 99.3054 208.119C99.4048 208.27 99.5341 208.396 99.6932 208.499C99.8551 208.598 100.028 208.682 100.213 208.75C100.398 208.815 100.575 208.869 100.746 208.912L101.598 209.134C101.876 209.202 102.162 209.294 102.455 209.411C102.747 209.527 103.018 209.68 103.268 209.871C103.518 210.061 103.72 210.297 103.874 210.578C104.03 210.859 104.108 211.196 104.108 211.588C104.108 212.082 103.98 212.521 103.724 212.905C103.472 213.288 103.104 213.591 102.621 213.812C102.141 214.034 101.56 214.145 100.878 214.145C100.224 214.145 99.6591 214.041 99.1818 213.834C98.7045 213.626 98.331 213.332 98.0611 212.952C97.7912 212.568 97.642 212.114 97.6136 211.588H98.9347C98.9602 211.903 99.0625 212.166 99.2415 212.376C99.4233 212.584 99.6548 212.739 99.9361 212.841C100.22 212.94 100.531 212.99 100.869 212.99C101.241 212.99 101.572 212.932 101.862 212.815C102.155 212.696 102.385 212.531 102.553 212.321C102.72 212.108 102.804 211.859 102.804 211.575C102.804 211.317 102.73 211.105 102.582 210.94C102.438 210.776 102.24 210.639 101.99 210.531C101.743 210.423 101.463 210.328 101.151 210.246L100.119 209.964C99.4205 209.774 98.8665 209.494 98.4574 209.125C98.0511 208.756 97.848 208.267 97.848 207.659C97.848 207.156 97.9844 206.717 98.2571 206.342C98.5298 205.967 98.8991 205.676 99.3651 205.469C99.831 205.259 100.357 205.153 100.942 205.153C101.533 205.153 102.054 205.257 102.506 205.464C102.96 205.672 103.318 205.957 103.58 206.321C103.841 206.682 103.977 207.097 103.989 207.565H102.719ZM108.4 214.132C107.755 214.132 107.2 213.994 106.734 213.719C106.271 213.44 105.913 213.05 105.66 212.547C105.41 212.041 105.285 211.449 105.285 210.77C105.285 210.099 105.41 209.509 105.66 208.997C105.913 208.486 106.265 208.087 106.717 207.8C107.172 207.513 107.703 207.369 108.311 207.369C108.68 207.369 109.038 207.43 109.385 207.553C109.731 207.675 110.042 207.866 110.318 208.128C110.593 208.389 110.811 208.729 110.97 209.146C111.129 209.561 111.208 210.065 111.208 210.659V211.111H106.005V210.156H109.96C109.96 209.821 109.892 209.524 109.755 209.266C109.619 209.004 109.427 208.798 109.18 208.648C108.936 208.497 108.649 208.422 108.319 208.422C107.961 208.422 107.649 208.51 107.382 208.686C107.118 208.859 106.913 209.087 106.768 209.368C106.626 209.646 106.555 209.949 106.555 210.276V211.021C106.555 211.459 106.632 211.831 106.785 212.138C106.941 212.445 107.159 212.679 107.437 212.841C107.716 213 108.041 213.08 108.413 213.08C108.654 213.08 108.875 213.045 109.074 212.977C109.272 212.906 109.444 212.801 109.589 212.662C109.734 212.523 109.845 212.351 109.922 212.146L111.127 212.364C111.031 212.719 110.858 213.03 110.608 213.297C110.36 213.561 110.049 213.767 109.674 213.915C109.302 214.06 108.877 214.132 108.4 214.132ZM113.896 210.114V214H112.622V207.455H113.845V208.52H113.926C114.077 208.173 114.313 207.895 114.634 207.685C114.957 207.474 115.365 207.369 115.857 207.369C116.303 207.369 116.693 207.463 117.028 207.651C117.364 207.835 117.624 208.111 117.808 208.477C117.993 208.844 118.085 209.297 118.085 209.837V214H116.811V209.99C116.811 209.516 116.688 209.145 116.44 208.878C116.193 208.608 115.854 208.473 115.422 208.473C115.126 208.473 114.864 208.537 114.634 208.665C114.406 208.793 114.226 208.98 114.092 209.227C113.962 209.472 113.896 209.767 113.896 210.114ZM122.244 214.128C121.716 214.128 121.244 213.993 120.83 213.723C120.418 213.45 120.094 213.062 119.858 212.56C119.625 212.054 119.509 211.447 119.509 210.74C119.509 210.033 119.626 209.428 119.862 208.925C120.101 208.422 120.428 208.037 120.842 207.77C121.257 207.503 121.727 207.369 122.253 207.369C122.659 207.369 122.986 207.438 123.233 207.574C123.483 207.707 123.676 207.864 123.812 208.043C123.952 208.222 124.06 208.379 124.136 208.516H124.213V205.273H125.487V214H124.243V212.982H124.136C124.06 213.121 123.949 213.28 123.804 213.459C123.662 213.638 123.466 213.794 123.216 213.928C122.966 214.061 122.642 214.128 122.244 214.128ZM122.526 213.041C122.892 213.041 123.202 212.945 123.455 212.751C123.71 212.555 123.903 212.284 124.034 211.938C124.168 211.591 124.234 211.187 124.234 210.727C124.234 210.273 124.169 209.875 124.038 209.534C123.908 209.193 123.716 208.928 123.463 208.737C123.21 208.547 122.898 208.452 122.526 208.452C122.142 208.452 121.822 208.551 121.567 208.75C121.311 208.949 121.118 209.22 120.987 209.564C120.859 209.908 120.795 210.295 120.795 210.727C120.795 211.165 120.861 211.558 120.991 211.908C121.122 212.257 121.315 212.534 121.571 212.739C121.83 212.94 122.148 213.041 122.526 213.041ZM127.306 214V207.455H128.58V214H127.306ZM127.949 206.445C127.728 206.445 127.537 206.371 127.378 206.223C127.222 206.072 127.144 205.893 127.144 205.686C127.144 205.476 127.222 205.297 127.378 205.149C127.537 204.999 127.728 204.923 127.949 204.923C128.171 204.923 128.36 204.999 128.516 205.149C128.675 205.297 128.755 205.476 128.755 205.686C128.755 205.893 128.675 206.072 128.516 206.223C128.36 206.371 128.171 206.445 127.949 206.445ZM131.568 210.114V214H130.294V207.455H131.517V208.52H131.598C131.749 208.173 131.984 207.895 132.305 207.685C132.629 207.474 133.037 207.369 133.528 207.369C133.974 207.369 134.365 207.463 134.7 207.651C135.036 207.835 135.295 208.111 135.48 208.477C135.665 208.844 135.757 209.297 135.757 209.837V214H134.483V209.99C134.483 209.516 134.359 209.145 134.112 208.878C133.865 208.608 133.526 208.473 133.094 208.473C132.798 208.473 132.536 208.537 132.305 208.665C132.078 208.793 131.898 208.98 131.764 209.227C131.634 209.472 131.568 209.767 131.568 210.114ZM140.21 216.591C139.69 216.591 139.243 216.523 138.868 216.386C138.496 216.25 138.192 216.07 137.956 215.845C137.72 215.621 137.544 215.375 137.428 215.108L138.523 214.656C138.599 214.781 138.702 214.913 138.83 215.053C138.96 215.195 139.136 215.315 139.358 215.415C139.582 215.514 139.871 215.564 140.223 215.564C140.706 215.564 141.105 215.446 141.42 215.21C141.736 214.977 141.893 214.605 141.893 214.094V212.807H141.812C141.736 212.946 141.625 213.101 141.48 213.271C141.338 213.442 141.142 213.589 140.892 213.714C140.642 213.839 140.317 213.902 139.916 213.902C139.399 213.902 138.933 213.781 138.518 213.54C138.107 213.295 137.78 212.936 137.538 212.462C137.3 211.984 137.18 211.398 137.18 210.702C137.18 210.006 137.298 209.409 137.534 208.912C137.773 208.415 138.099 208.034 138.514 207.77C138.929 207.503 139.399 207.369 139.925 207.369C140.331 207.369 140.659 207.438 140.909 207.574C141.159 207.707 141.354 207.864 141.493 208.043C141.635 208.222 141.744 208.379 141.821 208.516H141.915V207.455H143.163V214.145C143.163 214.707 143.033 215.169 142.771 215.53C142.51 215.891 142.156 216.158 141.71 216.331C141.267 216.504 140.767 216.591 140.21 216.591ZM140.197 212.845C140.564 212.845 140.874 212.76 141.126 212.589C141.382 212.416 141.575 212.169 141.706 211.848C141.839 211.524 141.906 211.136 141.906 210.685C141.906 210.244 141.841 209.857 141.71 209.521C141.58 209.186 141.388 208.925 141.135 208.737C140.882 208.547 140.57 208.452 140.197 208.452C139.814 208.452 139.494 208.551 139.239 208.75C138.983 208.946 138.79 209.213 138.659 209.551C138.531 209.889 138.467 210.267 138.467 210.685C138.467 211.114 138.533 211.49 138.663 211.814C138.794 212.138 138.987 212.391 139.243 212.572C139.501 212.754 139.82 212.845 140.197 212.845ZM151.342 205.273V214H150.021V206.594H149.97L147.882 207.957V206.696L150.059 205.273H151.342ZM160.39 205.273H161.702V211.46C161.702 212.02 161.592 212.499 161.37 212.896C161.151 213.294 160.843 213.598 160.445 213.808C160.048 214.016 159.582 214.119 159.048 214.119C158.556 214.119 158.114 214.03 157.722 213.851C157.333 213.672 157.025 213.412 156.798 213.071C156.573 212.727 156.461 212.31 156.461 211.818H157.769C157.769 212.06 157.825 212.268 157.935 212.445C158.049 212.621 158.204 212.759 158.4 212.858C158.599 212.955 158.826 213.003 159.082 213.003C159.36 213.003 159.596 212.945 159.789 212.828C159.985 212.709 160.134 212.534 160.237 212.304C160.339 212.074 160.39 211.793 160.39 211.46V205.273ZM168.379 207.565C168.333 207.162 168.146 206.849 167.816 206.628C167.487 206.403 167.072 206.291 166.572 206.291C166.214 206.291 165.904 206.348 165.643 206.462C165.382 206.572 165.179 206.726 165.034 206.922C164.892 207.115 164.821 207.335 164.821 207.582C164.821 207.79 164.869 207.969 164.966 208.119C165.065 208.27 165.194 208.396 165.353 208.499C165.515 208.598 165.689 208.682 165.873 208.75C166.058 208.815 166.235 208.869 166.406 208.912L167.258 209.134C167.537 209.202 167.822 209.294 168.115 209.411C168.407 209.527 168.679 209.68 168.929 209.871C169.179 210.061 169.38 210.297 169.534 210.578C169.69 210.859 169.768 211.196 169.768 211.588C169.768 212.082 169.64 212.521 169.385 212.905C169.132 213.288 168.764 213.591 168.281 213.812C167.801 214.034 167.22 214.145 166.538 214.145C165.885 214.145 165.319 214.041 164.842 213.834C164.365 213.626 163.991 213.332 163.721 212.952C163.451 212.568 163.302 212.114 163.274 211.588H164.595C164.62 211.903 164.723 212.166 164.902 212.376C165.083 212.584 165.315 212.739 165.596 212.841C165.88 212.94 166.191 212.99 166.529 212.99C166.902 212.99 167.233 212.932 167.522 212.815C167.815 212.696 168.045 212.531 168.213 212.321C168.38 212.108 168.464 211.859 168.464 211.575C168.464 211.317 168.39 211.105 168.243 210.94C168.098 210.776 167.9 210.639 167.65 210.531C167.403 210.423 167.123 210.328 166.811 210.246L165.779 209.964C165.081 209.774 164.527 209.494 164.118 209.125C163.711 208.756 163.508 208.267 163.508 207.659C163.508 207.156 163.645 206.717 163.917 206.342C164.19 205.967 164.559 205.676 165.025 205.469C165.491 205.259 166.017 205.153 166.602 205.153C167.193 205.153 167.714 205.257 168.166 205.464C168.62 205.672 168.978 205.957 169.24 206.321C169.501 206.682 169.637 207.097 169.649 207.565H168.379ZM174.517 214V205.273H177.628C178.304 205.273 178.865 205.389 179.311 205.622C179.76 205.855 180.096 206.178 180.317 206.589C180.539 206.999 180.65 207.472 180.65 208.009C180.65 208.543 180.537 209.013 180.313 209.419C180.091 209.822 179.756 210.136 179.307 210.361C178.861 210.585 178.3 210.697 177.624 210.697H175.267V209.564H177.505C177.931 209.564 178.277 209.503 178.544 209.381C178.814 209.259 179.012 209.081 179.137 208.848C179.262 208.615 179.324 208.335 179.324 208.009C179.324 207.679 179.26 207.393 179.132 207.152C179.007 206.911 178.81 206.726 178.54 206.598C178.273 206.467 177.922 206.402 177.488 206.402H175.834V214H174.517ZM178.826 210.062L180.982 214H179.482L177.368 210.062H178.826ZM184.888 214.132C184.244 214.132 183.688 213.994 183.222 213.719C182.759 213.44 182.401 213.05 182.148 212.547C181.898 212.041 181.773 211.449 181.773 210.77C181.773 210.099 181.898 209.509 182.148 208.997C182.401 208.486 182.754 208.087 183.205 207.8C183.66 207.513 184.191 207.369 184.799 207.369C185.168 207.369 185.526 207.43 185.873 207.553C186.219 207.675 186.531 207.866 186.806 208.128C187.082 208.389 187.299 208.729 187.458 209.146C187.617 209.561 187.697 210.065 187.697 210.659V211.111H182.494V210.156H186.448C186.448 209.821 186.38 209.524 186.244 209.266C186.107 209.004 185.915 208.798 185.668 208.648C185.424 208.497 185.137 208.422 184.808 208.422C184.45 208.422 184.137 208.51 183.87 208.686C183.606 208.859 183.401 209.087 183.256 209.368C183.114 209.646 183.043 209.949 183.043 210.276V211.021C183.043 211.459 183.12 211.831 183.273 212.138C183.43 212.445 183.647 212.679 183.925 212.841C184.204 213 184.529 213.08 184.901 213.08C185.143 213.08 185.363 213.045 185.562 212.977C185.761 212.906 185.933 212.801 186.077 212.662C186.222 212.523 186.333 212.351 186.41 212.146L187.616 212.364C187.519 212.719 187.346 213.03 187.096 213.297C186.849 213.561 186.538 213.767 186.163 213.915C185.79 214.06 185.366 214.132 184.888 214.132ZM193.529 216.455V212.982H193.453C193.376 213.121 193.265 213.28 193.12 213.459C192.978 213.638 192.782 213.794 192.532 213.928C192.282 214.061 191.958 214.128 191.561 214.128C191.032 214.128 190.561 213.993 190.146 213.723C189.734 213.45 189.41 213.062 189.174 212.56C188.941 212.054 188.825 211.447 188.825 210.74C188.825 210.033 188.943 209.428 189.179 208.925C189.417 208.422 189.744 208.037 190.159 207.77C190.574 207.503 191.044 207.369 191.569 207.369C191.975 207.369 192.302 207.438 192.549 207.574C192.799 207.707 192.993 207.864 193.129 208.043C193.268 208.222 193.376 208.379 193.453 208.516H193.559V207.455H194.804V216.455H193.529ZM191.842 213.041C192.208 213.041 192.518 212.945 192.771 212.751C193.027 212.555 193.22 212.284 193.35 211.938C193.484 211.591 193.551 211.187 193.551 210.727C193.551 210.273 193.485 209.875 193.355 209.534C193.224 209.193 193.032 208.928 192.779 208.737C192.527 208.547 192.214 208.452 191.842 208.452C191.458 208.452 191.139 208.551 190.883 208.75C190.627 208.949 190.434 209.22 190.304 209.564C190.176 209.908 190.112 210.295 190.112 210.727C190.112 211.165 190.177 211.558 190.308 211.908C190.439 212.257 190.632 212.534 190.887 212.739C191.146 212.94 191.464 213.041 191.842 213.041ZM200.663 211.286V207.455H201.941V214H200.689V212.866H200.62C200.47 213.216 200.228 213.507 199.896 213.74C199.566 213.97 199.156 214.085 198.664 214.085C198.244 214.085 197.872 213.993 197.548 213.808C197.227 213.621 196.974 213.344 196.789 212.977C196.608 212.611 196.517 212.158 196.517 211.618V207.455H197.791V211.464C197.791 211.911 197.914 212.266 198.162 212.53C198.409 212.794 198.73 212.926 199.125 212.926C199.363 212.926 199.6 212.866 199.836 212.747C200.075 212.628 200.272 212.447 200.429 212.206C200.588 211.964 200.666 211.658 200.663 211.286ZM206.474 214.132C205.83 214.132 205.274 213.994 204.808 213.719C204.345 213.44 203.987 213.05 203.734 212.547C203.484 212.041 203.359 211.449 203.359 210.77C203.359 210.099 203.484 209.509 203.734 208.997C203.987 208.486 204.339 208.087 204.791 207.8C205.246 207.513 205.777 207.369 206.385 207.369C206.754 207.369 207.112 207.43 207.459 207.553C207.805 207.675 208.116 207.866 208.392 208.128C208.668 208.389 208.885 208.729 209.044 209.146C209.203 209.561 209.283 210.065 209.283 210.659V211.111H204.08V210.156H208.034C208.034 209.821 207.966 209.524 207.83 209.266C207.693 209.004 207.501 208.798 207.254 208.648C207.01 208.497 206.723 208.422 206.393 208.422C206.036 208.422 205.723 208.51 205.456 208.686C205.192 208.859 204.987 209.087 204.842 209.368C204.7 209.646 204.629 209.949 204.629 210.276V211.021C204.629 211.459 204.706 211.831 204.859 212.138C205.016 212.445 205.233 212.679 205.511 212.841C205.79 213 206.115 213.08 206.487 213.08C206.729 213.08 206.949 213.045 207.148 212.977C207.347 212.906 207.518 212.801 207.663 212.662C207.808 212.523 207.919 212.351 207.996 212.146L209.202 212.364C209.105 212.719 208.932 213.03 208.682 213.297C208.435 213.561 208.124 213.767 207.749 213.915C207.376 214.06 206.952 214.132 206.474 214.132ZM215.601 209.053L214.446 209.257C214.398 209.109 214.321 208.969 214.216 208.835C214.114 208.702 213.975 208.592 213.799 208.507C213.623 208.422 213.402 208.379 213.138 208.379C212.777 208.379 212.476 208.46 212.235 208.622C211.993 208.781 211.873 208.987 211.873 209.24C211.873 209.459 211.953 209.635 212.115 209.768C212.277 209.902 212.539 210.011 212.9 210.097L213.939 210.335C214.542 210.474 214.99 210.689 215.286 210.979C215.581 211.268 215.729 211.645 215.729 212.108C215.729 212.5 215.615 212.849 215.388 213.156C215.164 213.46 214.85 213.699 214.446 213.872C214.046 214.045 213.581 214.132 213.053 214.132C212.32 214.132 211.722 213.976 211.259 213.663C210.796 213.348 210.512 212.901 210.407 212.321L211.638 212.134C211.715 212.455 211.873 212.697 212.111 212.862C212.35 213.024 212.661 213.105 213.044 213.105C213.462 213.105 213.796 213.018 214.046 212.845C214.296 212.669 214.421 212.455 214.421 212.202C214.421 211.997 214.344 211.825 214.191 211.686C214.04 211.547 213.809 211.442 213.496 211.371L212.388 211.128C211.777 210.989 211.326 210.767 211.033 210.463C210.743 210.159 210.598 209.774 210.598 209.308C210.598 208.922 210.706 208.584 210.922 208.294C211.138 208.004 211.436 207.778 211.817 207.616C212.198 207.452 212.634 207.369 213.125 207.369C213.833 207.369 214.39 207.523 214.796 207.83C215.202 208.134 215.471 208.541 215.601 209.053ZM220.185 207.455V208.477H216.61V207.455H220.185ZM217.569 205.886H218.843V212.078C218.843 212.325 218.88 212.511 218.954 212.636C219.028 212.759 219.123 212.842 219.239 212.888C219.359 212.93 219.488 212.952 219.627 212.952C219.729 212.952 219.819 212.945 219.896 212.93C219.972 212.916 220.032 212.905 220.075 212.896L220.305 213.949C220.231 213.977 220.126 214.006 219.989 214.034C219.853 214.065 219.683 214.082 219.478 214.085C219.143 214.091 218.83 214.031 218.54 213.906C218.251 213.781 218.016 213.588 217.837 213.327C217.658 213.065 217.569 212.737 217.569 212.342V205.886Z" fill="#3730A3"/>
<path class='main-lines' d="M40 139.5C39.7239 139.5 39.5 139.724 39.5 140C39.5 140.276 39.7239 140.5 40 140.5V140V139.5ZM133.887 140L131 137.113L128.113 140L131 142.887L133.887 140ZM42.0682 140.5C42.3443 140.5 42.5682 140.276 42.5682 140C42.5682 139.724 42.3443 139.5 42.0682 139.5V140V140.5ZM46.2045 139.5C45.9284 139.5 45.7045 139.724 45.7045 140C45.7045 140.276 45.9284 140.5 46.2045 140.5V140V139.5ZM50.3409 140.5C50.6171 140.5 50.8409 140.276 50.8409 140C50.8409 139.724 50.6171 139.5 50.3409 139.5V140V140.5ZM54.4773 139.5C54.2011 139.5 53.9773 139.724 53.9773 140C53.9773 140.276 54.2011 140.5 54.4773 140.5V140V139.5ZM58.6136 140.5C58.8898 140.5 59.1136 140.276 59.1136 140C59.1136 139.724 58.8898 139.5 58.6136 139.5V140V140.5ZM62.75 139.5C62.4739 139.5 62.25 139.724 62.25 140C62.25 140.276 62.4739 140.5 62.75 140.5V140V139.5ZM66.8864 140.5C67.1625 140.5 67.3864 140.276 67.3864 140C67.3864 139.724 67.1625 139.5 66.8864 139.5V140V140.5ZM71.0227 139.5C70.7466 139.5 70.5227 139.724 70.5227 140C70.5227 140.276 70.7466 140.5 71.0227 140.5V140V139.5ZM75.1591 140.5C75.4352 140.5 75.6591 140.276 75.6591 140C75.6591 139.724 75.4352 139.5 75.1591 139.5V140V140.5ZM79.2955 139.5C79.0193 139.5 78.7955 139.724 78.7955 140C78.7955 140.276 79.0193 140.5 79.2955 140.5V140V139.5ZM83.4318 140.5C83.708 140.5 83.9318 140.276 83.9318 140C83.9318 139.724 83.708 139.5 83.4318 139.5V140V140.5ZM87.5682 139.5C87.292 139.5 87.0682 139.724 87.0682 140C87.0682 140.276 87.292 140.5 87.5682 140.5V140V139.5ZM91.7046 140.5C91.9807 140.5 92.2046 140.276 92.2046 140C92.2046 139.724 91.9807 139.5 91.7046 139.5V140V140.5ZM95.8409 139.5C95.5648 139.5 95.3409 139.724 95.3409 140C95.3409 140.276 95.5648 140.5 95.8409 140.5V140V139.5ZM99.9773 140.5C100.253 140.5 100.477 140.276 100.477 140C100.477 139.724 100.253 139.5 99.9773 139.5V140V140.5ZM104.114 139.5C103.837 139.5 103.614 139.724 103.614 140C103.614 140.276 103.837 140.5 104.114 140.5V140V139.5ZM108.25 140.5C108.526 140.5 108.75 140.276 108.75 140C108.75 139.724 108.526 139.5 108.25 139.5V140V140.5ZM112.386 139.5C112.11 139.5 111.886 139.724 111.886 140C111.886 140.276 112.11 140.5 112.386 140.5V140V139.5ZM116.523 140.5C116.799 140.5 117.023 140.276 117.023 140C117.023 139.724 116.799 139.5 116.523 139.5V140V140.5ZM120.659 139.5C120.383 139.5 120.159 139.724 120.159 140C120.159 140.276 120.383 140.5 120.659 140.5V140V139.5ZM124.795 140.5C125.072 140.5 125.295 140.276 125.295 140C125.295 139.724 125.072 139.5 124.795 139.5V140V140.5ZM128.932 139.5C128.656 139.5 128.432 139.724 128.432 140C128.432 140.276 128.656 140.5 128.932 140.5V140V139.5ZM40 140V140.5H42.0682V140V139.5H40V140ZM46.2045 140V140.5H50.3409V140V139.5H46.2045V140ZM54.4773 140V140.5H58.6136V140V139.5H54.4773V140ZM62.75 140V140.5H66.8864V140V139.5H62.75V140ZM71.0227 140V140.5H75.1591V140V139.5H71.0227V140ZM79.2955 140V140.5H83.4318V140V139.5H79.2955V140ZM87.5682 140V140.5H91.7046V140V139.5H87.5682V140ZM95.8409 140V140.5H99.9773V140V139.5H95.8409V140ZM104.114 140V140.5H108.25V140V139.5H104.114V140ZM112.386 140V140.5H116.523V140V139.5H112.386V140ZM120.659 140V140.5H124.795V140V139.5H120.659V140ZM128.932 140V140.5H131V140V139.5H128.932V140Z" fill="#C7D2FE"/>
<path class='main-lines' d="M159 114.887L161.887 112L159 109.113L156.113 112L159 114.887ZM159.5 41C159.5 40.7239 159.276 40.5 159 40.5C158.724 40.5 158.5 40.7239 158.5 41L159 41L159.5 41ZM159.5 110.028C159.5 109.752 159.276 109.528 159 109.528C158.724 109.528 158.5 109.752 158.5 110.028L159 110.028L159.5 110.028ZM158.5 106.083C158.5 106.359 158.724 106.583 159 106.583C159.276 106.583 159.5 106.359 159.5 106.083L159 106.083L158.5 106.083ZM159.5 102.139C159.5 101.863 159.276 101.639 159 101.639C158.724 101.639 158.5 101.863 158.5 102.139L159 102.139L159.5 102.139ZM158.5 98.1944C158.5 98.4706 158.724 98.6944 159 98.6944C159.276 98.6944 159.5 98.4706 159.5 98.1944L159 98.1944L158.5 98.1944ZM159.5 94.25C159.5 93.9739 159.276 93.75 159 93.75C158.724 93.75 158.5 93.9739 158.5 94.25L159 94.25L159.5 94.25ZM158.5 90.3056C158.5 90.5817 158.724 90.8056 159 90.8056C159.276 90.8056 159.5 90.5817 159.5 90.3056L159 90.3056L158.5 90.3056ZM159.5 86.3611C159.5 86.085 159.276 85.8611 159 85.8611C158.724 85.8611 158.5 86.085 158.5 86.3611L159 86.3611L159.5 86.3611ZM158.5 82.4167C158.5 82.6928 158.724 82.9167 159 82.9167C159.276 82.9167 159.5 82.6928 159.5 82.4167L159 82.4167L158.5 82.4167ZM159.5 78.4722C159.5 78.1961 159.276 77.9722 159 77.9722C158.724 77.9722 158.5 78.1961 158.5 78.4722L159 78.4722L159.5 78.4722ZM158.5 74.5278C158.5 74.8039 158.724 75.0278 159 75.0278C159.276 75.0278 159.5 74.8039 159.5 74.5278L159 74.5278L158.5 74.5278ZM159.5 70.5833C159.5 70.3072 159.276 70.0833 159 70.0833C158.724 70.0833 158.5 70.3072 158.5 70.5833L159 70.5833L159.5 70.5833ZM158.5 66.6389C158.5 66.915 158.724 67.1389 159 67.1389C159.276 67.1389 159.5 66.915 159.5 66.6389L159 66.6389L158.5 66.6389ZM159.5 62.6945C159.5 62.4183 159.276 62.1945 159 62.1945C158.724 62.1945 158.5 62.4183 158.5 62.6945L159 62.6945L159.5 62.6945ZM158.5 58.75C158.5 59.0262 158.724 59.25 159 59.25C159.276 59.25 159.5 59.0262 159.5 58.75L159 58.75L158.5 58.75ZM159.5 54.8056C159.5 54.5294 159.276 54.3056 159 54.3056C158.724 54.3056 158.5 54.5294 158.5 54.8056L159 54.8056L159.5 54.8056ZM158.5 50.8611C158.5 51.1373 158.724 51.3611 159 51.3611C159.276 51.3611 159.5 51.1373 159.5 50.8611L159 50.8611L158.5 50.8611ZM159.5 46.9167C159.5 46.6405 159.276 46.4167 159 46.4167C158.724 46.4167 158.5 46.6405 158.5 46.9167L159 46.9167L159.5 46.9167ZM158.5 42.9722C158.5 43.2484 158.724 43.4722 159 43.4722C159.276 43.4722 159.5 43.2484 159.5 42.9722L159 42.9722L158.5 42.9722ZM159 112L159.5 112L159.5 110.028L159 110.028L158.5 110.028L158.5 112L159 112ZM159 106.083L159.5 106.083L159.5 102.139L159 102.139L158.5 102.139L158.5 106.083L159 106.083ZM159 98.1944L159.5 98.1944L159.5 94.25L159 94.25L158.5 94.25L158.5 98.1944L159 98.1944ZM159 90.3056L159.5 90.3056L159.5 86.3611L159 86.3611L158.5 86.3611L158.5 90.3056L159 90.3056ZM159 82.4167L159.5 82.4167L159.5 78.4722L159 78.4722L158.5 78.4722L158.5 82.4167L159 82.4167ZM159 74.5278L159.5 74.5278L159.5 70.5833L159 70.5833L158.5 70.5833L158.5 74.5278L159 74.5278ZM159 66.6389L159.5 66.6389L159.5 62.6945L159 62.6945L158.5 62.6945L158.5 66.6389L159 66.6389ZM159 58.75L159.5 58.75L159.5 54.8056L159 54.8056L158.5 54.8056L158.5 58.75L159 58.75ZM159 50.8611L159.5 50.8611L159.5 46.9167L159 46.9167L158.5 46.9167L158.5 50.8611L159 50.8611ZM159 42.9722L159.5 42.9722L159.5 41L159 41L158.5 41L158.5 42.9722L159 42.9722Z" fill="#C7D2FE"/>
<path class='main-lines' d="M184.113 140L187 142.887L189.887 140L187 137.113L184.113 140ZM279 140.5C279.276 140.5 279.5 140.276 279.5 140C279.5 139.724 279.276 139.5 279 139.5V140V140.5ZM188.917 140.5C189.193 140.5 189.417 140.276 189.417 140C189.417 139.724 189.193 139.5 188.917 139.5V140V140.5ZM192.75 139.5C192.474 139.5 192.25 139.724 192.25 140C192.25 140.276 192.474 140.5 192.75 140.5V140V139.5ZM196.583 140.5C196.859 140.5 197.083 140.276 197.083 140C197.083 139.724 196.859 139.5 196.583 139.5V140V140.5ZM200.417 139.5C200.141 139.5 199.917 139.724 199.917 140C199.917 140.276 200.141 140.5 200.417 140.5V140V139.5ZM204.25 140.5C204.526 140.5 204.75 140.276 204.75 140C204.75 139.724 204.526 139.5 204.25 139.5V140V140.5ZM208.083 139.5C207.807 139.5 207.583 139.724 207.583 140C207.583 140.276 207.807 140.5 208.083 140.5V140V139.5ZM211.917 140.5C212.193 140.5 212.417 140.276 212.417 140C212.417 139.724 212.193 139.5 211.917 139.5V140V140.5ZM215.75 139.5C215.474 139.5 215.25 139.724 215.25 140C215.25 140.276 215.474 140.5 215.75 140.5V140V139.5ZM219.583 140.5C219.859 140.5 220.083 140.276 220.083 140C220.083 139.724 219.859 139.5 219.583 139.5V140V140.5ZM223.417 139.5C223.141 139.5 222.917 139.724 222.917 140C222.917 140.276 223.141 140.5 223.417 140.5V140V139.5ZM227.25 140.5C227.526 140.5 227.75 140.276 227.75 140C227.75 139.724 227.526 139.5 227.25 139.5V140V140.5ZM231.083 139.5C230.807 139.5 230.583 139.724 230.583 140C230.583 140.276 230.807 140.5 231.083 140.5V140V139.5ZM234.917 140.5C235.193 140.5 235.417 140.276 235.417 140C235.417 139.724 235.193 139.5 234.917 139.5V140V140.5ZM238.75 139.5C238.474 139.5 238.25 139.724 238.25 140C238.25 140.276 238.474 140.5 238.75 140.5V140V139.5ZM242.583 140.5C242.859 140.5 243.083 140.276 243.083 140C243.083 139.724 242.859 139.5 242.583 139.5V140V140.5ZM246.417 139.5C246.141 139.5 245.917 139.724 245.917 140C245.917 140.276 246.141 140.5 246.417 140.5V140V139.5ZM250.25 140.5C250.526 140.5 250.75 140.276 250.75 140C250.75 139.724 250.526 139.5 250.25 139.5V140V140.5ZM254.083 139.5C253.807 139.5 253.583 139.724 253.583 140C253.583 140.276 253.807 140.5 254.083 140.5V140V139.5ZM257.917 140.5C258.193 140.5 258.417 140.276 258.417 140C258.417 139.724 258.193 139.5 257.917 139.5V140V140.5ZM261.75 139.5C261.474 139.5 261.25 139.724 261.25 140C261.25 140.276 261.474 140.5 261.75 140.5V140V139.5ZM265.583 140.5C265.859 140.5 266.083 140.276 266.083 140C266.083 139.724 265.859 139.5 265.583 139.5V140V140.5ZM269.417 139.5C269.141 139.5 268.917 139.724 268.917 140C268.917 140.276 269.141 140.5 269.417 140.5V140V139.5ZM273.25 140.5C273.526 140.5 273.75 140.276 273.75 140C273.75 139.724 273.526 139.5 273.25 139.5V140V140.5ZM277.083 139.5C276.807 139.5 276.583 139.724 276.583 140C276.583 140.276 276.807 140.5 277.083 140.5V140V139.5ZM187 140V140.5H188.917V140V139.5H187V140ZM192.75 140V140.5H196.583V140V139.5H192.75V140ZM200.417 140V140.5H204.25V140V139.5H200.417V140ZM208.083 140V140.5H211.917V140V139.5H208.083V140ZM215.75 140V140.5H219.583V140V139.5H215.75V140ZM223.417 140V140.5H227.25V140V139.5H223.417V140ZM231.083 140V140.5H234.917V140V139.5H231.083V140ZM238.75 140V140.5H242.583V140V139.5H238.75V140ZM246.417 140V140.5H250.25V140V139.5H246.417V140ZM254.083 140V140.5H257.917V140V139.5H254.083V140ZM261.75 140V140.5H265.583V140V139.5H261.75V140ZM269.417 140V140.5H273.25V140V139.5H269.417V140ZM277.083 140V140.5H279V140V139.5H277.083V140Z" fill="#C7D2FE"/>
<path class='main-lines' d="M150.887 112.5L148 115.387L145.113 112.5L148 109.613L150.887 112.5ZM148 102.625C148.276 102.625 148.5 102.849 148.5 103.125V106.875C148.5 107.151 148.276 107.375 148 107.375C147.724 107.375 147.5 107.151 147.5 106.875V103.125C147.5 102.849 147.724 102.625 148 102.625ZM148 95.125C148.242 95.125 148.444 95.2964 148.49 95.5244L148.5 95.625V99.375C148.5 99.6511 148.276 99.875 148 99.875C147.724 99.875 147.5 99.6511 147.5 99.375V95.625L147.51 95.5244C147.556 95.2964 147.758 95.125 148 95.125ZM148 87.625C148.242 87.625 148.444 87.7964 148.49 88.0244L148.5 88.125V91.875C148.5 92.1511 148.276 92.375 148 92.375C147.724 92.375 147.5 92.1511 147.5 91.875V88.125L147.51 88.0244C147.556 87.7964 147.758 87.625 148 87.625ZM148 80.125C148.276 80.125 148.5 80.3489 148.5 80.625V84.375C148.5 84.6511 148.276 84.875 148 84.875C147.724 84.875 147.5 84.6511 147.5 84.375V80.625C147.5 80.3489 147.724 80.125 148 80.125ZM148 72.625C148.276 72.625 148.5 72.8489 148.5 73.125V76.875C148.5 77.1511 148.276 77.375 148 77.375C147.724 77.375 147.5 77.1511 147.5 76.875V73.125C147.5 72.8489 147.724 72.625 148 72.625ZM148 67C148.276 67 148.5 67.2239 148.5 67.5V69.375C148.5 69.6511 148.276 69.875 148 69.875C147.724 69.875 147.5 69.6511 147.5 69.375V67.5C147.5 67.2239 147.724 67 148 67ZM74.083 67C74.3592 67 74.583 67.2239 74.583 67.5C74.583 67.7761 74.3592 68 74.083 68H72C71.7239 68 71.5 67.7761 71.5 67.5C71.5 67.2239 71.7239 67 72 67H74.083ZM82.417 67C82.693 67.0002 82.917 67.224 82.917 67.5C82.917 67.776 82.693 67.9998 82.417 68H78.25C77.9739 68 77.75 67.7761 77.75 67.5C77.75 67.2239 77.9739 67 78.25 67H82.417ZM90.75 67C91.0261 67 91.25 67.2239 91.25 67.5C91.25 67.7761 91.0261 68 90.75 68H86.583C86.307 67.9998 86.083 67.776 86.083 67.5C86.083 67.224 86.307 67.0002 86.583 67H90.75ZM99.083 67C99.3592 67 99.583 67.2239 99.583 67.5C99.583 67.7761 99.3592 68 99.083 68H94.917C94.6408 68 94.417 67.7761 94.417 67.5C94.417 67.2239 94.6408 67 94.917 67H99.083ZM107.417 67C107.693 67.0002 107.917 67.224 107.917 67.5C107.917 67.776 107.693 67.9998 107.417 68H103.25C102.974 68 102.75 67.7761 102.75 67.5C102.75 67.2239 102.974 67 103.25 67H107.417ZM115.75 67C116.026 67 116.25 67.2239 116.25 67.5C116.25 67.7761 116.026 68 115.75 68H111.583C111.307 67.9998 111.083 67.776 111.083 67.5C111.083 67.224 111.307 67.0002 111.583 67H115.75ZM124.083 67C124.359 67 124.583 67.2239 124.583 67.5C124.583 67.7761 124.359 68 124.083 68H119.917C119.641 68 119.417 67.7761 119.417 67.5C119.417 67.2239 119.641 67 119.917 67H124.083ZM132.417 67C132.693 67.0002 132.917 67.224 132.917 67.5C132.917 67.776 132.693 67.9998 132.417 68H128.25C127.974 68 127.75 67.7761 127.75 67.5C127.75 67.2239 127.974 67 128.25 67H132.417ZM140.75 67C141.026 67 141.25 67.2239 141.25 67.5C141.25 67.7761 141.026 68 140.75 68H136.583C136.307 67.9998 136.083 67.776 136.083 67.5C136.083 67.224 136.307 67.0002 136.583 67H140.75ZM147 67C147.276 67 147.5 67.2239 147.5 67.5C147.5 67.7761 147.276 68 147 68H144.917C144.641 68 144.417 67.7761 144.417 67.5C144.417 67.2239 144.641 67 144.917 67H147Z" fill="#C7D2FE"/>
<path class='main-lines' d="M167.5 112.5L170.387 115.387L173.273 112.5L170.387 109.613L167.5 112.5ZM170.387 102.625C170.111 102.625 169.887 102.849 169.887 103.125V106.875C169.887 107.151 170.111 107.375 170.387 107.375C170.663 107.375 170.887 107.151 170.887 106.875V103.125C170.887 102.849 170.663 102.625 170.387 102.625ZM170.387 95.125C170.145 95.125 169.943 95.2964 169.896 95.5244L169.887 95.625V99.375C169.887 99.6511 170.111 99.875 170.387 99.875C170.663 99.875 170.887 99.6511 170.887 99.375V95.625L170.877 95.5244C170.83 95.2964 170.628 95.125 170.387 95.125ZM170.387 87.625C170.145 87.625 169.943 87.7964 169.896 88.0244L169.887 88.125V91.875C169.887 92.1511 170.111 92.375 170.387 92.375C170.663 92.375 170.887 92.1511 170.887 91.875V88.125L170.877 88.0244C170.83 87.7964 170.628 87.625 170.387 87.625ZM170.387 80.125C170.111 80.125 169.887 80.3489 169.887 80.625V84.375C169.887 84.6511 170.111 84.875 170.387 84.875C170.663 84.875 170.887 84.6511 170.887 84.375V80.625C170.887 80.3489 170.663 80.125 170.387 80.125ZM170.387 72.625C170.111 72.625 169.887 72.8489 169.887 73.125V76.875C169.887 77.1511 170.111 77.375 170.387 77.375C170.663 77.375 170.887 77.1511 170.887 76.875V73.125C170.887 72.8489 170.663 72.625 170.387 72.625ZM170.387 67C170.111 67 169.887 67.2239 169.887 67.5V69.375C169.887 69.6511 170.111 69.875 170.387 69.875C170.663 69.875 170.887 69.6511 170.887 69.375V67.5C170.887 67.2239 170.663 67 170.387 67ZM244.304 67C244.028 67 243.804 67.2239 243.804 67.5C243.804 67.7761 244.028 68 244.304 68H246.387C246.663 68 246.887 67.7761 246.887 67.5C246.887 67.2239 246.663 67 246.387 67H244.304ZM235.97 67C235.694 67.0002 235.47 67.224 235.47 67.5C235.47 67.776 235.694 67.9998 235.97 68H240.137C240.413 68 240.637 67.7761 240.637 67.5C240.637 67.2239 240.413 67 240.137 67H235.97ZM227.637 67C227.361 67 227.137 67.2239 227.137 67.5C227.137 67.7761 227.361 68 227.637 68H231.804C232.08 67.9998 232.304 67.776 232.304 67.5C232.304 67.224 232.08 67.0002 231.804 67H227.637ZM219.304 67C219.028 67 218.804 67.2239 218.804 67.5C218.804 67.7761 219.028 68 219.304 68H223.47C223.746 68 223.97 67.7761 223.97 67.5C223.97 67.2239 223.746 67 223.47 67H219.304ZM210.97 67C210.694 67.0002 210.47 67.224 210.47 67.5C210.47 67.776 210.694 67.9998 210.97 68H215.137C215.413 68 215.637 67.7761 215.637 67.5C215.637 67.2239 215.413 67 215.137 67H210.97ZM202.637 67C202.361 67 202.137 67.2239 202.137 67.5C202.137 67.7761 202.361 68 202.637 68H206.804C207.08 67.9998 207.304 67.776 207.304 67.5C207.304 67.224 207.08 67.0002 206.804 67H202.637ZM194.304 67C194.028 67 193.804 67.2239 193.804 67.5C193.804 67.7761 194.028 68 194.304 68H198.47C198.746 68 198.97 67.7761 198.97 67.5C198.97 67.2239 198.746 67 198.47 67H194.304ZM185.97 67C185.694 67.0002 185.47 67.224 185.47 67.5C185.47 67.776 185.694 67.9998 185.97 68H190.137C190.413 68 190.637 67.7761 190.637 67.5C190.637 67.2239 190.413 67 190.137 67H185.97ZM177.637 67C177.361 67 177.137 67.2239 177.137 67.5C177.137 67.7761 177.361 68 177.637 68H181.804C182.08 67.9998 182.304 67.776 182.304 67.5C182.304 67.224 182.08 67.0002 181.804 67H177.637ZM171.387 67C171.111 67 170.887 67.2239 170.887 67.5C170.887 67.7761 171.111 68 171.387 68H173.47C173.746 68 173.97 67.7761 173.97 67.5C173.97 67.2239 173.746 67 173.47 67H171.387Z" fill="#C7D2FE"/>
<path class='main-out-box' d="M40 46.25H64C68.2802 46.25 71.75 49.7198 71.75 54V78C71.75 82.2802 68.2802 85.75 64 85.75H40C35.7198 85.75 32.25 82.2802 32.25 78V54C32.25 49.7198 35.7198 46.25 40 46.25Z" fill="white"/>
<path class='main-out-box' d="M40 46.25H64C68.2802 46.25 71.75 49.7198 71.75 54V78C71.75 82.2802 68.2802 85.75 64 85.75H40C35.7198 85.75 32.25 82.2802 32.25 78V54C32.25 49.7198 35.7198 46.25 40 46.25Z" stroke="#E4E4E7" stroke-width="0.5"/>
<path class='main-out-box' d="M53.3333 59.3333V61.9999C53.3333 62.3535 53.4738 62.6927 53.7239 62.9427C53.9739 63.1928 54.313 63.3333 54.6667 63.3333H57.3333M50.6667 65.9999C50.4899 65.9999 50.3203 66.0702 50.1953 66.1952C50.0702 66.3202 50 66.4898 50 66.6666V67.3333C50 67.5101 49.9298 67.6796 49.8047 67.8047C49.6797 67.9297 49.5101 67.9999 49.3333 67.9999C49.5101 67.9999 49.6797 68.0702 49.8047 68.1952C49.9298 68.3202 50 68.4898 50 68.6666V69.3333C50 69.5101 50.0702 69.6796 50.1953 69.8047C50.3203 69.9297 50.4899 69.9999 50.6667 69.9999M53.3333 69.9999C53.5101 69.9999 53.6797 69.9297 53.8047 69.8047C53.9298 69.6796 54 69.5101 54 69.3333V68.6666C54 68.4898 54.0702 68.3202 54.1953 68.1952C54.3203 68.0702 54.4899 67.9999 54.6667 67.9999C54.4899 67.9999 54.3203 67.9297 54.1953 67.8047C54.0702 67.6796 54 67.5101 54 67.3333V66.6666C54 66.4898 53.9298 66.3202 53.8047 66.1952C53.6797 66.0702 53.5101 65.9999 53.3333 65.9999M54 59.3333H48C47.6464 59.3333 47.3072 59.4737 47.0572 59.7238C46.8071 59.9738 46.6667 60.313 46.6667 60.6666V71.3333C46.6667 71.6869 46.8071 72.026 47.0572 72.2761C47.3072 72.5261 47.6464 72.6666 48 72.6666H56C56.3536 72.6666 56.6928 72.5261 56.9428 72.2761C57.1929 72.026 57.3333 71.6869 57.3333 71.3333V62.6666L54 59.3333Z" stroke="#818CF8" stroke-linecap="round" stroke-linejoin="round"/>
<path class='main-out-box' d="M8 118.75H32C36.2802 118.75 39.75 122.22 39.75 126.5V150.5C39.75 154.78 36.2802 158.25 32 158.25H8C3.71979 158.25 0.25 154.78 0.25 150.5V126.5C0.25 122.22 3.71979 118.75 8 118.75Z" fill="white"/>
<path class='main-out-box' d="M8 118.75H32C36.2802 118.75 39.75 122.22 39.75 126.5V150.5C39.75 154.78 36.2802 158.25 32 158.25H8C3.71979 158.25 0.25 154.78 0.25 150.5V126.5C0.25 122.22 3.71979 118.75 8 118.75Z" stroke="#E4E4E7" stroke-width="0.5"/>
<path class='main-out-box' d="M21.3333 131.833V134.5C21.3333 134.854 21.4738 135.193 21.7239 135.443C21.9739 135.693 22.313 135.833 22.6667 135.833H25.3333M18.6667 138.5C18.4899 138.5 18.3203 138.57 18.1953 138.695C18.0702 138.82 18 138.99 18 139.167V139.833C18 140.01 17.9298 140.18 17.8047 140.305C17.6797 140.43 17.5101 140.5 17.3333 140.5C17.5101 140.5 17.6797 140.57 17.8047 140.695C17.9298 140.82 18 140.99 18 141.167V141.833C18 142.01 18.0702 142.18 18.1953 142.305C18.3203 142.43 18.4899 142.5 18.6667 142.5M21.3333 142.5C21.5101 142.5 21.6797 142.43 21.8047 142.305C21.9298 142.18 22 142.01 22 141.833V141.167C22 140.99 22.0702 140.82 22.1953 140.695C22.3203 140.57 22.4899 140.5 22.6667 140.5C22.4899 140.5 22.3203 140.43 22.1953 140.305C22.0702 140.18 22 140.01 22 139.833V139.167C22 138.99 21.9298 138.82 21.8047 138.695C21.6797 138.57 21.5101 138.5 21.3333 138.5M22 131.833H16C15.6464 131.833 15.3072 131.974 15.0572 132.224C14.8071 132.474 14.6667 132.813 14.6667 133.167V143.833C14.6667 144.187 14.8071 144.526 15.0572 144.776C15.3072 145.026 15.6464 145.167 16 145.167H24C24.3536 145.167 24.6928 145.026 24.9428 144.776C25.1929 144.526 25.3333 144.187 25.3333 143.833V135.167L22 131.833Z" stroke="#818CF8" stroke-linecap="round" stroke-linejoin="round"/>
<path class='main-out-box' d="M287 118.75H311C315.28 118.75 318.75 122.22 318.75 126.5V150.5C318.75 154.78 315.28 158.25 311 158.25H287C282.72 158.25 279.25 154.78 279.25 150.5V126.5C279.25 122.22 282.72 118.75 287 118.75Z" fill="white"/>
<path class='main-out-box' d="M287 118.75H311C315.28 118.75 318.75 122.22 318.75 126.5V150.5C318.75 154.78 315.28 158.25 311 158.25H287C282.72 158.25 279.25 154.78 279.25 150.5V126.5C279.25 122.22 282.72 118.75 287 118.75Z" stroke="#E4E4E7" stroke-width="0.5"/>
<path class='main-out-box' d="M300.333 131.833V134.5C300.333 134.854 300.474 135.193 300.724 135.443C300.974 135.693 301.313 135.833 301.667 135.833H304.333M297.667 138.5C297.49 138.5 297.32 138.57 297.195 138.695C297.07 138.82 297 138.99 297 139.167V139.833C297 140.01 296.93 140.18 296.805 140.305C296.68 140.43 296.51 140.5 296.333 140.5C296.51 140.5 296.68 140.57 296.805 140.695C296.93 140.82 297 140.99 297 141.167V141.833C297 142.01 297.07 142.18 297.195 142.305C297.32 142.43 297.49 142.5 297.667 142.5M300.333 142.5C300.51 142.5 300.68 142.43 300.805 142.305C300.93 142.18 301 142.01 301 141.833V141.167C301 140.99 301.07 140.82 301.195 140.695C301.32 140.57 301.49 140.5 301.667 140.5C301.49 140.5 301.32 140.43 301.195 140.305C301.07 140.18 301 140.01 301 139.833V139.167C301 138.99 300.93 138.82 300.805 138.695C300.68 138.57 300.51 138.5 300.333 138.5M301 131.833H295C294.646 131.833 294.307 131.974 294.057 132.224C293.807 132.474 293.667 132.813 293.667 133.167V143.833C293.667 144.187 293.807 144.526 294.057 144.776C294.307 145.026 294.646 145.167 295 145.167H303C303.354 145.167 303.693 145.026 303.943 144.776C304.193 144.526 304.333 144.187 304.333 143.833V135.167L301 131.833Z" stroke="#818CF8" stroke-linecap="round" stroke-linejoin="round"/>
<path class='main-out-box' d="M255 46.25H279C283.28 46.25 286.75 49.7198 286.75 54V78C286.75 82.2802 283.28 85.75 279 85.75H255C250.72 85.75 247.25 82.2802 247.25 78V54C247.25 49.7198 250.72 46.25 255 46.25Z" fill="white"/>
<path class='main-out-box' d="M255 46.25H279C283.28 46.25 286.75 49.7198 286.75 54V78C286.75 82.2802 283.28 85.75 279 85.75H255C250.72 85.75 247.25 82.2802 247.25 78V54C247.25 49.7198 250.72 46.25 255 46.25Z" stroke="#E4E4E7" stroke-width="0.5"/>
<path class='main-out-box' d="M268.333 59.3333V61.9999C268.333 62.3535 268.474 62.6927 268.724 62.9427C268.974 63.1928 269.313 63.3333 269.667 63.3333H272.333M265.667 65.9999C265.49 65.9999 265.32 66.0702 265.195 66.1952C265.07 66.3202 265 66.4898 265 66.6666V67.3333C265 67.5101 264.93 67.6796 264.805 67.8047C264.68 67.9297 264.51 67.9999 264.333 67.9999C264.51 67.9999 264.68 68.0702 264.805 68.1952C264.93 68.3202 265 68.4898 265 68.6666V69.3333C265 69.5101 265.07 69.6796 265.195 69.8047C265.32 69.9297 265.49 69.9999 265.667 69.9999M268.333 69.9999C268.51 69.9999 268.68 69.9297 268.805 69.8047C268.93 69.6796 269 69.5101 269 69.3333V68.6666C269 68.4898 269.07 68.3202 269.195 68.1952C269.32 68.0702 269.49 67.9999 269.667 67.9999C269.49 67.9999 269.32 67.9297 269.195 67.8047C269.07 67.6796 269 67.5101 269 67.3333V66.6666C269 66.4898 268.93 66.3202 268.805 66.1952C268.68 66.0702 268.51 65.9999 268.333 65.9999M269 59.3333H263C262.646 59.3333 262.307 59.4737 262.057 59.7238C261.807 59.9738 261.667 60.313 261.667 60.6666V71.3333C261.667 71.6869 261.807 72.026 262.057 72.2761C262.307 72.5261 262.646 72.6666 263 72.6666H271C271.354 72.6666 271.693 72.5261 271.943 72.2761C272.193 72.026 272.333 71.6869 272.333 71.3333V62.6666L269 59.3333Z" stroke="#818CF8" stroke-linecap="round" stroke-linejoin="round"/>
<path class='main-out-box' d="M147 0.75H171C175.28 0.75 178.75 4.21979 178.75 8.5V32.5C178.75 36.7802 175.28 40.25 171 40.25H147C142.72 40.25 139.25 36.7802 139.25 32.5V8.5C139.25 4.21979 142.72 0.75 147 0.75Z" fill="white"/>
<path class='main-out-box' d="M147 0.75H171C175.28 0.75 178.75 4.21979 178.75 8.5V32.5C178.75 36.7802 175.28 40.25 171 40.25H147C142.72 40.25 139.25 36.7802 139.25 32.5V8.5C139.25 4.21979 142.72 0.75 147 0.75Z" stroke="#E4E4E7" stroke-width="0.5"/>
<path class='main-out-box' d="M160.333 13.8333V16.4999C160.333 16.8535 160.474 17.1927 160.724 17.4427C160.974 17.6928 161.313 17.8333 161.667 17.8333H164.333M157.667 20.4999C157.49 20.4999 157.32 20.5702 157.195 20.6952C157.07 20.8202 157 20.9898 157 21.1666V21.8333C157 22.0101 156.93 22.1796 156.805 22.3047C156.68 22.4297 156.51 22.4999 156.333 22.4999C156.51 22.4999 156.68 22.5702 156.805 22.6952C156.93 22.8202 157 22.9898 157 23.1666V23.8333C157 24.0101 157.07 24.1796 157.195 24.3047C157.32 24.4297 157.49 24.4999 157.667 24.4999M160.333 24.4999C160.51 24.4999 160.68 24.4297 160.805 24.3047C160.93 24.1796 161 24.0101 161 23.8333V23.1666C161 22.9898 161.07 22.8202 161.195 22.6952C161.32 22.5702 161.49 22.4999 161.667 22.4999C161.49 22.4999 161.32 22.4297 161.195 22.3047C161.07 22.1796 161 22.0101 161 21.8333V21.1666C161 20.9898 160.93 20.8202 160.805 20.6952C160.68 20.5702 160.51 20.4999 160.333 20.4999M161 13.8333H155C154.646 13.8333 154.307 13.9737 154.057 14.2238C153.807 14.4738 153.667 14.813 153.667 15.1666V25.8333C153.667 26.1869 153.807 26.526 154.057 26.7761C154.307 27.0261 154.646 27.1666 155 27.1666H163C163.354 27.1666 163.693 27.0261 163.943 26.7761C164.193 26.526 164.333 26.1869 164.333 25.8333V17.1666L161 13.8333Z" stroke="#818CF8" stroke-linecap="round" stroke-linejoin="round"/>
<g class='js-box-main' filter="url(#filter0_dd_12_61)">
<path class='js-box' d="M131 120C131 115.582 134.582 112 139 112H179C183.418 112 187 115.582 187 120V160C187 164.418 183.418 168 179 168H139C134.582 168 131 164.418 131 160V120Z" fill="white" shape-rendering="crispEdges"/>
<path class='js-box' d="M139 112.454H179C183.167 112.454 186.546 115.833 186.546 120V160C186.546 164.167 183.167 167.546 179 167.546H139C134.833 167.546 131.454 164.167 131.454 160V120C131.454 115.833 134.833 112.454 139 112.454Z" stroke="#E4E4E7" stroke-width="0.90873" shape-rendering="crispEdges"/>
<path class='js-box' d="M167.333 124V124.454H169C169.753 124.454 170.47 124.604 171.123 124.875L171.296 124.456C172.762 125.064 173.935 126.237 174.543 127.703L174.125 127.877C174.396 128.53 174.546 129.247 174.546 130V131.667H175V135H174.546V138.333H175V141.667H174.546V145H175V148.333H174.546V150C174.546 150.753 174.396 151.47 174.125 152.123L174.543 152.296C173.935 153.763 172.763 154.935 171.296 155.543L171.123 155.125C170.47 155.396 169.753 155.546 169 155.546H167.333V156H164V155.546H160.667V156H157.333V155.546H154V156H150.667V155.546H149C148.247 155.546 147.53 155.396 146.877 155.125L146.703 155.543C145.237 154.935 144.064 153.762 143.456 152.296L143.875 152.123C143.604 151.47 143.454 150.753 143.454 150V148.333H143V145H143.454V141.667H143V138.333H143.454V135H143V131.667H143.454V130C143.454 129.247 143.604 128.53 143.875 127.877L143.456 127.703C144.064 126.237 145.237 125.064 146.703 124.456L146.877 124.875C147.53 124.604 148.247 124.454 149 124.454H150.667V124H154V124.454H157.333V124H160.667V124.454H164V124H167.333Z" stroke="#3730A3" stroke-width="0.90873" stroke-dasharray="4 4"/>
<path class='js-box' d="M153 131C152.204 131 151.441 131.316 150.879 131.879C150.316 132.441 150 133.204 150 134V146C150 146.796 150.316 147.559 150.879 148.121C151.441 148.684 152.204 149 153 149H165C165.796 149 166.559 148.684 167.121 148.121C167.684 147.559 168 146.796 168 146V134C168 133.204 167.684 132.441 167.121 131.879C166.559 131.316 165.796 131 165 131H153ZM160.334 144.055C161.054 144.635 161.773 144.921 162.49 144.913C162.93 144.913 163.267 144.832 163.502 144.671C163.611 144.6 163.7 144.502 163.76 144.386C163.82 144.27 163.848 144.141 163.843 144.011C163.845 143.869 163.815 143.728 163.756 143.599C163.697 143.47 163.611 143.355 163.503 143.263C163.268 143.058 162.824 142.853 162.171 142.647C161.386 142.42 160.781 142.127 160.356 141.767C159.939 141.407 159.726 140.905 159.718 140.26C159.718 139.651 159.982 139.142 160.51 138.731C161.023 138.32 161.68 138.115 162.48 138.115C163.595 138.115 164.489 138.386 165.163 138.929L164.393 140.128C164.116 139.912 163.798 139.755 163.458 139.666C163.153 139.564 162.834 139.508 162.512 139.501C162.132 139.501 161.828 139.571 161.599 139.71C161.372 139.85 161.259 140.033 161.259 140.26C161.259 140.509 161.398 140.722 161.676 140.898C161.956 141.067 162.433 141.254 163.106 141.459C163.92 141.701 164.499 142.024 164.844 142.427C165.189 142.83 165.361 143.344 165.361 143.967C165.361 144.605 165.115 145.155 164.624 145.617C164.14 146.072 163.436 146.31 162.512 146.332C161.302 146.332 160.29 145.969 159.476 145.243L160.334 144.055ZM154.804 144.693C155.039 144.84 155.321 144.913 155.651 144.913C155.996 144.913 156.282 144.814 156.509 144.616C156.736 144.411 156.849 144.055 156.85 143.549V138.247H158.335V143.835C158.313 144.7 158.064 145.324 157.587 145.705C157.326 145.926 157.023 146.09 156.696 146.189C156.393 146.281 156.078 146.329 155.761 146.332C155.211 146.332 154.723 146.237 154.298 146.046C153.843 145.841 153.462 145.478 153.154 144.957L154.188 144.11C154.378 144.367 154.583 144.561 154.804 144.693Z" fill="#3730A3"/>
</g>
<defs>
<filter id="filter0_dd_12_61" x="111" y="112" width="96" height="96" filterUnits="userSpaceOnUse" color-interpolation-filters="sRGB">
<feFlood flood-opacity="0" result="BackgroundImageFix"/>
<feColorMatrix in="SourceAlpha" type="matrix" values="0 0 0 0 0 0 0 0 0 0 0 0 0 0 0 0 0 0 127 0" result="hardAlpha"/>
<feMorphology radius="5" operator="erode" in="SourceAlpha" result="effect1_dropShadow_12_61"/>
<feOffset dy="10"/>
<feGaussianBlur stdDeviation="5"/>
<feComposite in2="hardAlpha" operator="out"/>
<feColorMatrix type="matrix" values="0 0 0 0 0 0 0 0 0 0 0 0 0 0 0 0 0 0 0.04 0"/>
<feBlend mode="normal" in2="BackgroundImageFix" result="effect1_dropShadow_12_61"/>
<feColorMatrix in="SourceAlpha" type="matrix" values="0 0 0 0 0 0 0 0 0 0 0 0 0 0 0 0 0 0 127 0" result="hardAlpha"/>
<feMorphology radius="5" operator="erode" in="SourceAlpha" result="effect2_dropShadow_12_61"/>
<feOffset dy="20"/>
<feGaussianBlur stdDeviation="12.5"/>
<feComposite in2="hardAlpha" operator="out"/>
<feColorMatrix type="matrix" values="0 0 0 0 0 0 0 0 0 0 0 0 0 0 0 0 0 0 0.1 0"/>
<feBlend mode="normal" in2="effect1_dropShadow_12_61" result="effect2_dropShadow_12_61"/>
<feBlend mode="normal" in="SourceGraphic" in2="effect2_dropShadow_12_61" result="shape"/>
</filter>
</defs>
</svg>
